<svg xmlns="http://www.w3.org/2000/svg" width="100%" height="200" viewBox="0 0 1200 200" preserveAspectRatio="none">
  <!-- Pure black background -->
  <rect width="1200" height="200" fill="#000000"/>
  
  <!-- Scan lines -->
  <g opacity="0.06">
    <rect y="0" width="1200" height="1" fill="#fff"/><rect y="4" width="1200" height="1" fill="#fff"/>
    <rect y="8" width="1200" height="1" fill="#fff"/><rect y="12" width="1200" height="1" fill="#fff"/>
    <rect y="16" width="1200" height="1" fill="#fff"/><rect y="20" width="1200" height="1" fill="#fff"/>
    <rect y="24" width="1200" height="1" fill="#fff"/><rect y="28" width="1200" height="1" fill="#fff"/>
    <rect y="32" width="1200" height="1" fill="#fff"/><rect y="36" width="1200" height="1" fill="#fff"/>
    <rect y="40" width="1200" height="1" fill="#fff"/><rect y="44" width="1200" height="1" fill="#fff"/>
    <rect y="48" width="1200" height="1" fill="#fff"/><rect y="52" width="1200" height="1" fill="#fff"/>
    <rect y="56" width="1200" height="1" fill="#fff"/><rect y="60" width="1200" height="1" fill="#fff"/>
    <rect y="64" width="1200" height="1" fill="#fff"/><rect y="68" width="1200" height="1" fill="#fff"/>
    <rect y="72" width="1200" height="1" fill="#fff"/><rect y="76" width="1200" height="1" fill="#fff"/>
    <rect y="80" width="1200" height="1" fill="#fff"/><rect y="84" width="1200" height="1" fill="#fff"/>
    <rect y="88" width="1200" height="1" fill="#fff"/><rect y="92" width="1200" height="1" fill="#fff"/>
    <rect y="96" width="1200" height="1" fill="#fff"/><rect y="100" width="1200" height="1" fill="#fff"/>
    <rect y="104" width="1200" height="1" fill="#fff"/><rect y="108" width="1200" height="1" fill="#fff"/>
    <rect y="112" width="1200" height="1" fill="#fff"/><rect y="116" width="1200" height="1" fill="#fff"/>
    <rect y="120" width="1200" height="1" fill="#fff"/><rect y="124" width="1200" height="1" fill="#fff"/>
    <rect y="128" width="1200" height="1" fill="#fff"/><rect y="132" width="1200" height="1" fill="#fff"/>
    <rect y="136" width="1200" height="1" fill="#fff"/><rect y="140" width="1200" height="1" fill="#fff"/>
    <rect y="144" width="1200" height="1" fill="#fff"/><rect y="148" width="1200" height="1" fill="#fff"/>
    <rect y="152" width="1200" height="1" fill="#fff"/><rect y="156" width="1200" height="1" fill="#fff"/>
    <rect y="160" width="1200" height="1" fill="#fff"/><rect y="164" width="1200" height="1" fill="#fff"/>
    <rect y="168" width="1200" height="1" fill="#fff"/><rect y="172" width="1200" height="1" fill="#fff"/>
    <rect y="176" width="1200" height="1" fill="#fff"/><rect y="180" width="1200" height="1" fill="#fff"/>
    <rect y="184" width="1200" height="1" fill="#fff"/><rect y="188" width="1200" height="1" fill="#fff"/>
    <rect y="192" width="1200" height="1" fill="#fff"/><rect y="196" width="1200" height="1" fill="#fff"/>
  </g>

  <!-- Glitch layer: Cyan shifted text -->
  <text x="600" y="88" text-anchor="middle" font-family="'Courier New', monospace" font-size="52" font-weight="700" fill="#00ffff" opacity="0.4">
    Triarchy Labs
    <animate attributeName="x" values="600;603;600;598;600;600;605;600;600;600;597;600" dur="3s" repeatCount="indefinite"/>
    <animate attributeName="opacity" values="0.4;0.4;0.4;0.7;0.4;0;0.4;0.4;0.8;0.4;0.4;0" dur="2.7s" repeatCount="indefinite"/>
  </text>

  <!-- Glitch layer: Red shifted text -->
  <text x="600" y="88" text-anchor="middle" font-family="'Courier New', monospace" font-size="52" font-weight="700" fill="#ff0040" opacity="0.35">
    Triarchy Labs
    <animate attributeName="x" values="600;597;600;602;600;600;596;600;600;600;604;600" dur="3.3s" repeatCount="indefinite"/>
    <animate attributeName="opacity" values="0.35;0.35;0.7;0.35;0;0.35;0.35;0.35;0.9;0.35;0.35;0" dur="2.1s" repeatCount="indefinite"/>
  </text>

  <!-- Main text: white -->
  <text x="600" y="88" text-anchor="middle" font-family="'Courier New', monospace" font-size="52" font-weight="700" fill="#e6edf3">
    Triarchy Labs
    <animate attributeName="opacity" values="1;1;1;0.85;1;1;1;0.7;1;1;1;1;0.9;1" dur="4s" repeatCount="indefinite"/>
  </text>

  <!-- Subtitle -->
  <text x="600" y="125" text-anchor="middle" font-family="'Courier New', monospace" font-size="13" fill="#8b949e" letter-spacing="3">
    PROTOCOL ENGINEERING · WEB3 SECURITY · KNOWLEDGE GRAPHS
    <animate attributeName="opacity" values="1;1;1;0.3;1;1;1;1;0.5;1;1;1" dur="5s" repeatCount="indefinite"/>
  </text>

  <!-- Glitch bar: horizontal noise -->
  <rect x="0" y="75" width="1200" height="3" fill="#00ffff" opacity="0">
    <animate attributeName="opacity" values="0;0;0;0;0.15;0;0;0;0;0;0.2;0;0;0;0;0;0;0.1;0" dur="3s" repeatCount="indefinite"/>
    <animate attributeName="y" values="75;82;75;90;75;65;75;95;75;70;75" dur="2.5s" repeatCount="indefinite"/>
  </rect>
  <rect x="0" y="85" width="1200" height="2" fill="#ff0040" opacity="0">
    <animate attributeName="opacity" values="0;0;0;0.12;0;0;0;0;0.18;0;0;0;0;0;0.08;0;0;0;0" dur="3.7s" repeatCount="indefinite"/>
    <animate attributeName="y" values="85;78;85;92;85;70;85;100;85;80;85" dur="2.9s" repeatCount="indefinite"/>
  </rect>

  <!-- Noise blocks: random flicker -->
  <rect x="100" y="70" width="80" height="4" fill="#0a0a0a" opacity="0">
    <animate attributeName="opacity" values="0;0;0;0;0;1;0;0;0;0;0;0;0;1;0;0;0" dur="4s" repeatCount="indefinite"/>
    <animate attributeName="x" values="100;300;700;100;500;900;100" dur="3.1s" repeatCount="indefinite"/>
  </rect>
  <rect x="400" y="90" width="120" height="3" fill="#0a0a0a" opacity="0">
    <animate attributeName="opacity" values="0;0;0;0;1;0;0;0;0;0;0;1;0;0;0;0" dur="3.5s" repeatCount="indefinite"/>
    <animate attributeName="x" values="400;200;800;400;600;100;400" dur="2.8s" repeatCount="indefinite"/>
  </rect>

  <!-- Bottom wave -->
  <path d="M0,170 C200,190 400,155 600,175 C800,195 1000,160 1200,175 L1200,200 L0,200 Z" fill="#000" opacity="0.4"/>
  <path d="M0,180 C300,200 500,165 700,185 C900,200 1100,170 1200,185 L1200,200 L0,200 Z" fill="#000" opacity="0.6"/>
</svg>
